# xmcd CD database file
#
# Track frame offsets:
#	150
#	50344
#	89201
#	129907
#	173295
#	198408
#	222608
#	245658
#	272107
#	300647
#
# Disc length: 4419 seconds
#
# Revision: 0
# Processed by: cddbd v1.5.2PL0 Copyright (c) Steve Scherf et al.
# Submitted via: CDex 1.70beta2
#
DISCID=9011410a
DTITLE=John Coltrane - Modern Jazz Hard Bop 1956 Vol. 1 CD 057
DYEAR=2008
DGENRE=Jazz
TTITLE0=Elmo Hope All-Star Sextet - Wee Jah
TTITLE1=Elmo Hope All-Star Sextet - Polka Dots And Moonbeams
TTITLE2=Elmo Hope All-Star Sextet - On It
TTITLE3=Elmo Hope All-Star Sextet - Avalon
TTITLE4=Tadd Dameron - Mating call
TTITLE5=Tadd Dameron - Soultrane
TTITLE6=Tadd Dameron - Gnid
TTITLE7=Tadd Dameron - Super Jet
TTITLE8=Tadd Dameron - On A Misty Night
TTITLE9=Tadd Dameron - Romas
EXTD=YEAR: 2008
EXTT0=
EXTT1=
EXTT2=
EXTT3=
EXTT4=
EXTT5=
EXTT6=
EXTT7=
EXTT8=
EXTT9=
PLAYORDER=
